P3
36 59
255
190 210 208  240 244 255  193 211 211  141 163 116  122 147 66  97 116 58  198 202 201  119 145 58  119 139 50  166 180 144  117 133 71  194 207 198  239 246 255  239 246 255  239 246 255  239 246 255  238 245 255  239 246 255  239 246 255  240 247 255  218 217 231  203 220 238  222 218 233  73 97 75  217 234 244  121 148 103  80 104 46  46 55 28  53 70 28  61 83 62  35 45 19  38 50 26  95 86 89  54 65 31  79 98 40  73 91 31  
128 154 125  247 245 255  164 185 176  111 133 48  94 116 44  97 113 64  124 145 70  122 143 52  92 110 48  102 122 53  132 153 78  176 208 205  239 246 255  239 246 255  238 245 255  239 246 255  239 246 255  241 248 255  241 246 252  232 246 255  237 237 247  85 114 60  54 67 39  199 199 201  245 245 243  64 86 37  190 187 180  188 182 166  74 98 50  51 67 30  42 55 27  53 69 30  54 72 56  217 224 230  225 233 244  84 104 43  
130 154 92  133 151 67  169 190 171  120 141 50  112 141 75  171 183 161  112 133 40  125 148 68  100 119 55  93 110 58  132 150 110  237 239 255  222 247 243  218 238 247  239 246 255  239 246 255  238 245 255  232 242 252  99 127 76  112 133 92  210 213 222  206 211 217  252 252 252  245 244 242  240 236 235  242 243 247  223 223 213  220 217 210  43 50 32  94 113 47  96 117 50  84 103 55  182 197 178  173 152 161  109 118 97  84 97 41  
101 118 46  127 142 85  114 131 61  101 119 43  117 140 49  145 164 106  109 129 44  116 129 50  105 126 61  122 138 65  147 159 135  126 152 105  137 147 120  150 171 164  239 246 255  239 246 255  239 246 255  240 246 255  156 165 136  113 136 94  87 104 62  243 243 251  232 233 227  181 178 169  236 229 223  255 246 241  214 201 192  182 177 171  115 131 59  69 85 36  107 124 43  76 98 26  79 98 34  37 52 29  180 182 168  62 84 37  
109 126 56  119 138 56  180 186 172  151 163 113  129 145 82  105 127 44  93 113 50  74 83 54  70 84 48  105 116 50  117 154 119  210 210 218  233 237 249  193 198 201  238 245 255  238 245 255  238 245 255  235 242 255  172 197 201  158 178 166  158 158 150  241 244 249  241 241 243  253 251 254  253 253 253  254 252 253  252 252 252  253 251 252  242 229 221  119 139 50  106 129 49  91 109 47  46 57 23  77 94 39  43 43 35  64 80 43  
114 132 72  110 129 47  113 137 49  124 151 98  100 116 53  105 122 44  112 133 56  84 97 54  96 111 70  117 131 104  179 189 191  170 190 181  232 241 255  239 243 254  238 245 255  237 244 254  236 242 254  240 248 255  239 245 255  232 229 236  243 243 245  154 189 191  252 252 254  254 254 254  250 248 249  249 251 250  252 252 252  251 251 251  252 252 254  173 156 146  79 95 33  90 112 38  93 114 37  69 96 29  111 145 121  100 120 49  
107 125 63  192 207 204  144 152 66  102 125 35  106 127 52  113 134 43  113 131 55  92 103 69  92 101 82  168 188 189  142 166 134  95 121 82  173 187 151  200 220 211  239 243 254  237 243 255  237 243 255  237 243 255  237 243 255  244 247 252  253 252 247  254 253 249  250 250 252  241 241 239  254 255 251  254 252 255  97 87 96  246 244 245  247 245 246  250 252 251  64 80 33  85 102 34  84 103 39  89 102 33  114 135 44  140 157 61  
123 142 96  95 117 55  116 128 54  111 122 46  96 108 60  118 138 43  125 141 52  61 68 35  145 165 153  146 164 148  95 108 54  186 196 187  132 151 121  126 150 75  172 194 179  237 241 252  236 242 254  237 243 255  236 242 254  95 98 91  81 79 84  243 238 232  246 245 243  220 217 212  62 63 58  74 64 75  247 248 234  244 242 243  246 244 245  245 243 244  249 247 252  79 95 50  78 97 31  81 101 38  35 52 20  146 145 140  
101 111 77  91 106 51  113 133 82  81 100 55  54 65 31  86 103 59  70 87 33  80 93 49  81 97 48  65 73 36  123 130 99  45 51 49  52 51 59  60 58 61  74 76 88  146 161 104  237 245 255  235 243 254  237 240 247  79 79 77  64 66 61  227 219 208  245 238 220  198 192 180  60 59 57  52 52 60  237 241 240  243 242 238  248 246 247  239 239 239  242 243 247  45 55 28  41 49 26  54 72 20  51 68 34  66 65 47  
73 83 31  99 128 84  117 144 129  117 142 102  69 82 39  53 72 27  93 114 49  99 122 50  122 136 100  42 41 46  51 50 55  56 55 60  58 57 62  62 61 66  66 65 70  60 56 57  64 64 66  229 235 251  222 225 218  184 171 119  253 241 141  252 237 134  253 238 139  250 226 178  54 54 42  49 50 44  231 228 221  242 242 244  246 244 245  242 242 242  245 245 245  69 61 48  37 51 18  44 60 24  67 84 50  40 55 26  
94 108 47  106 127 52  80 98 56  111 113 89  78 111 40  102 120 46  62 78 39  87 108 39  38 38 40  50 49 54  56 55 60  59 58 64  62 63 68  64 63 69  69 68 74  67 63 60  89 93 94  234 243 248  255 237 135  255 234 131  255 233 127  254 230 122  253 227 117  253 227 116  254 226 116  241 217 193  244 239 235  241 241 243  240 240 242  223 216 206  237 242 236  217 212 206  36 44 21  38 51 21  47 62 29  87 97 71  
100 107 74  86 103 58  92 118 57  51 60 41  83 101 39  104 121 41  97 119 44  101 123 41  42 42 44  55 54 59  60 59 64  63 62 68  65 66 71  69 68 74  70 69 75  64 68 67  230 238 249  227 207 157  253 229 119  252 225 112  250 220 108  249 218 104  249 216 101  252 217 101  254 222 105  254 227 114  251 231 118  251 229 110  253 232 117  245 212 99  233 221 233  246 239 247  51 62 28  36 50 15  74 92 40  78 93 34  
172 173 159  192 193 179  226 227 222  122 137 96  85 106 37  74 89 34  87 99 49  86 106 35  45 44 49  58 57 63  66 65 71  62 61 67  33 34 36  15 15 15  16 16 14  15 15 13  12 18 4  232 209 105  237 208 91  247 217 95  244 212 93  245 207 83  241 201 80  239 198 72  247 209 84  248 212 92  245 208 91  246 210 88  241 205 83  223 186 71  242 243 237  227 232 235  38 53 24  56 74 24  69 90 25  42 51 24  
178 180 177  132 132 124  111 121 87  96 110 75  94 114 41  69 83 30  69 86 34  74 91 36  46 47 51  24 24 26  12 12 10  23 19 16  81 78 69  153 144 129  178 175 166  172 152 125  14 16 15  203 175 65  221 194 79  229 193 73  229 190 69  226 186 62  230 189 63  225 185 61  231 193 69  244 208 86  177 113 15  232 191 67  213 174 55  201 173 90  234 234 232  232 230 231  41 55 19  57 63 35  47 59 19  80 99 41  
144 148 147  231 226 222  237 234 229  78 95 43  137 146 119  57 67 32  54 55 39  48 58 32  11 11 11  8 8 8  62 57 51  94 86 76  202 194 181  149 147 135  194 192 170  197 194 177  13 13 11  166 132 45  193 159 59  194 156 45  201 161 50  193 151 43  189 147 37  199 157 39  208 166 46  208 168 45  228 174 48  210 164 43  199 161 52  225 225 223  213 212 208  230 230 222  49 58 27  36 52 16  42 55 28  96 101 47  
198 194 191  188 188 188  186 186 188  116 130 105  133 139 113  37 39 26  121 122 106  9 9 9  13 13 13  28 32 33  107 113 109  184 181 172  36 36 36  49 50 52  27 27 29  23 25 20  103 89 78  40 40 38  144 105 30  149 114 24  22 15 7  11 12 7  20 13 3  155 111 40  188 143 42  187 139 31  208 164 42  179 147 74  224 224 214  195 192 185  234 233 229  234 228 228  77 92 33  87 103 40  102 118 45  80 86 50  
190 190 188  188 188 188  188 188 188  173 174 169  127 129 118  42 39 30  99 122 50  9 13 12  15 15 15  134 127 119  211 205 189  200 200 190  132 131 129  181 175 163  191 187 176  48 44 41  169 169 169  71 70 65  168 138 44  172 140 40  185 146 41  197 156 42  204 161 46  202 161 45  204 163 47  206 167 46  196 179 153  225 223 210  207 203 192  221 217 206  222 218 209  225 222 217  214 206 203  86 96 44  40 50 24  29 29 27  
189 192 185  173 150 158  187 182 178  177 175 180  108 99 84  55 60 66  94 110 65  80 71 66  21 22 26  22 18 19  58 55 50  126 113 94  157 153 141  168 165 156  61 60 65  103 93 81  53 52 48  101 97 88  82 76 64  152 119 42  165 129 41  161 121 36  182 138 39  198 157 51  206 165 49  193 180 161  237 230 220  218 212 200  213 209 197  239 235 224  254 250 249  249 248 246  251 249 252  241 224 217  121 106 63  64 55 50  
90 59 38  90 98 100  123 95 82  151 127 115  161 111 84  91 73 53  75 74 92  74 76 88  39 42 49  19 21 20  185 177 157  126 125 120  183 173 161  217 205 189  176 173 164  131 120 101  96 93 84  132 130 117  147 145 133  136 128 108  88 68 44  87 63 25  103 77 44  173 158 129  210 204 190  237 234 227  246 243 238  252 249 244  250 245 241  254 253 251  247 246 242  54 55 86  37 39 54  108 102 102  195 164 169  202 153 139  
211 209 222  208 179 171  96 104 117  152 161 178  86 76 84  83 90 98  80 80 92  24 25 29  31 35 38  20 20 22  143 139 128  174 174 172  89 88 86  64 59 53  109 99 87  40 40 40  170 169 164  153 152 147  167 167 155  174 172 160  183 180 171  192 189 184  197 194 187  227 226 221  243 239 228  247 244 239  251 247 244  245 242 237  250 246 243  137 138 140  123 121 126  37 35 59  40 47 76  74 75 123  71 95 121  34 82 84  
255 150 34  165 142 134  22 27 48  80 81 101  77 79 92  80 80 92  46 49 56  24 25 29  24 25 29  19 20 25  13 14 18  105 106 100  190 187 172  179 173 161  39 38 36  8 9 14  132 134 131  15 17 32  179 178 174  46 49 64  209 209 201  210 211 206  31 37 53  238 237 232  225 224 222  232 231 227  249 248 246  188 196 199  236 235 231  36 38 60  32 34 57  31 35 62  56 62 96  54 62 98  72 81 124  27 72 75  
44 56 56  23 29 61  14 11 18  53 57 66  85 85 97  64 64 74  38 41 48  27 28 32  22 23 27  10 10 10  13 13 13  12 13 17  179 171 158  162 155 139  11 12 16  12 13 17  19 19 27  19 23 34  21 25 37  50 53 70  230 229 225  25 24 38  37 44 73  184 187 192  39 45 71  22 28 44  235 232 227  19 23 32  18 19 21  33 34 62  30 35 57  37 40 71  34 40 72  62 70 107  66 73 117  50 93 102  
33 37 38  29 37 76  49 51 89  55 58 67  20 21 26  48 48 56  41 41 49  28 29 33  29 30 34  50 51 56  20 21 23  25 27 26  11 11 11  10 12 9  8 8 8  11 12 16  19 21 33  23 25 40  25 28 45  22 25 42  21 23 35  34 38 63  35 42 71  51 48 59  84 80 95  29 31 46  19 21 33  32 35 52  30 32 45  27 30 49  29 33 60  27 31 58  48 51 84  32 36 63  51 59 98  46 54 65  
92 96 123  24 22 45  19 19 29  24 25 29  59 62 69  46 47 52  30 31 36  25 26 30  33 34 38  74 74 84  11 12 14  12 12 12  11 11 11  9 9 9  170 168 192  15 16 11  21 25 36  26 29 48  27 29 51  28 31 50  28 33 54  33 39 65  32 38 62  32 38 64  33 37 62  27 30 49  19 21 36  16 18 31  28 31 50  21 24 41  28 33 55  28 30 52  31 36 58  43 48 77  42 47 79  19 40 41  
70 88 102  15 20 39  36 39 46  44 43 49  48 51 60  40 41 46  35 36 40  32 33 37  36 37 42  74 74 84  51 51 61  10 10 12  9 11 6  14 15 20  76 75 93  246 250 255  216 220 245  29 33 58  32 36 61  31 33 56  31 35 60  31 35 60  29 33 58  28 34 58  28 33 55  26 29 46  16 20 31  5 8 13  17 16 30  39 43 70  28 31 50  36 40 69  31 35 64  23 28 47  36 42 68  25 71 69  
183 183 183  19 21 43  25 26 30  66 66 78  53 56 65  52 55 64  36 39 44  43 46 53  53 53 63  53 56 63  66 69 78  67 68 72  19 19 21  111 112 140  172 176 205  238 239 255  234 237 254  38 40 62  36 41 70  35 41 73  31 38 58  28 34 56  30 35 57  30 34 59  28 29 49  23 24 42  37 39 64  37 41 66  25 27 50  24 27 46  25 28 59  32 34 57  25 28 47  29 34 56  40 44 81  29 67 77  
250 254 255  22 21 35  37 40 47  49 52 59  46 49 56  51 54 63  45 48 55  39 40 45  45 48 55  53 56 63  61 64 73  189 186 197  32 33 37  237 243 255  245 248 253  200 205 245  217 219 244  184 184 208  201 204 219  233 233 241  218 221 228  226 229 238  214 214 222  83 82 98  25 28 47  14 20 32  24 28 53  23 25 47  43 48 78  20 22 37  32 36 63  34 36 59  20 22 45  38 39 69  24 19 25  20 21 23  
177 180 197  47 47 57  43 46 53  42 45 52  51 54 63  54 57 66  43 43 51  40 41 46  46 49 56  39 42 49  60 63 72  238 239 255  42 47 51  250 250 252  247 250 255  227 230 245  180 181 212  166 167 185  192 195 210  244 244 244  235 238 245  216 219 228  215 219 230  24 25 45  20 21 39  17 17 29  42 47 76  29 33 58  29 33 58  31 32 54  18 19 39  24 26 48  32 36 63  29 35 51  56 35 32  22 23 25  
147 163 178  34 35 39  54 54 66  48 51 58  47 50 59  50 53 62  39 42 49  38 39 43  41 44 51  58 61 68  58 61 70  205 209 234  254 253 255  237 238 255  241 244 253  217 222 252  181 183 206  214 218 227  219 220 224  34 40 66  42 49 78  33 34 54  227 226 224  28 32 57  57 62 100  21 23 38  24 27 44  19 22 39  21 24 43  19 22 39  27 29 51  25 30 49  25 27 49  186 153 146  170 122 112  18 18 20  
171 137 125  47 47 55  45 48 53  49 52 59  55 58 67  47 50 57  38 39 44  37 38 43  47 50 57  67 69 81  42 45 52  250 249 255  244 246 255  225 230 252  195 198 229  134 135 157  17 18 20  209 214 220  225 228 235  160 166 178  88 93 114  24 30 46  47 52 92  31 36 58  24 27 46  35 37 62  26 27 45  27 28 48  22 23 41  26 29 48  33 36 53  30 32 57  36 41 63  185 152 145  48 34 33  24 34 35  
81 70 68  53 56 65  43 46 53  48 51 58  41 44 51  28 29 34  30 31 36  35 36 41  59 62 71  58 61 70  37 40 47  224 225 255  199 204 236  90 90 118  13 13 15  39 39 51  154 158 170  219 219 227  199 205 219  199 203 215  212 211 216  47 55 94  53 58 96  34 38 65  24 26 48  26 30 55  23 27 52  23 25 47  31 33 55  24 26 48  34 36 58  27 30 47  159 163 174  171 172 167  32 30 33  168 169 164  
68 71 78  46 49 56  43 46 53  57 60 69  37 40 45  20 21 25  26 27 31  32 33 37  44 47 52  28 29 34  23 24 26  20 23 42  19 22 41  19 24 45  30 32 70  7 8 10  174 172 186  40 47 75  68 76 113  53 61 100  45 49 78  25 30 52  34 36 61  30 32 54  34 38 65  27 31 56  30 34 59  24 31 51  36 37 59  24 26 39  22 22 32  14 27 45  173 173 171  175 173 174  22 22 24  173 175 170  
55 58 67  44 47 54  46 49 56  46 49 56  22 21 26  20 21 23  23 24 28  26 27 31  27 28 32  16 16 16  15 15 15  9 9 11  13 13 23  15 17 30  18 21 40  26 29 60  22 26 53  25 26 54  28 29 57  27 29 54  36 38 63  39 43 72  34 36 61  36 38 63  25 27 49  28 31 50  32 33 53  24 25 43  16 16 28  18 19 24  26 27 45  177 176 172  172 171 169  168 170 167  24 28 29  171 167 168  
54 58 67  36 39 44  53 57 66  37 38 43  16 17 19  18 19 21  23 24 28  22 22 24  12 12 12  13 13 13  9 9 9  9 9 9  33 26 18  21 21 47  16 17 35  16 19 36  16 17 35  17 16 30  27 31 58  27 29 51  25 27 49  36 38 61  18 20 42  25 27 50  30 32 57  24 27 42  26 29 44  19 21 36  15 15 23  24 24 36  62 86 98  166 164 165  159 159 159  150 154 157  33 38 34  147 145 146  
54 59 65  43 46 53  67 69 81  24 25 29  16 16 18  17 18 20  20 19 24  20 20 22  11 11 11  12 11 9  21 21 33  19 22 41  16 18 33  17 20 37  15 17 32  13 13 25  15 14 28  16 18 31  19 19 27  22 25 40  24 27 46  19 21 34  13 16 23  14 16 28  23 24 42  26 27 45  20 22 35  17 17 25  15 15 25  27 32 53  193 198 201  196 192 189  186 182 179  163 160 169  200 240 116  182 178 179  
39 44 50  56 58 70  34 37 44  20 20 22  15 15 15  17 18 20  21 20 25  19 19 21  19 19 21  9 8 13  11 14 23  10 12 24  16 16 26  12 14 27  11 13 25  14 14 26  13 13 25  14 14 26  31 33 46  34 37 56  23 25 47  28 31 50  29 31 54  34 35 53  23 22 36  13 13 21  17 17 29  8 9 13  17 17 27  19 23 35  19 30 60  180 176 173  191 188 183  184 176 173  189 191 180  190 193 174  
43 46 53  53 57 68  24 24 26  18 19 21  16 16 18  18 17 22  19 20 24  17 18 20  11 11 11  11 12 14  97 97 109  60 60 62  28 27 33  12 12 24  12 12 22  13 13 25  10 10 20  8 8 10  8 8 10  42 43 65  28 31 50  31 33 56  18 21 40  17 17 27  13 13 21  13 15 30  17 19 34  6 6 8  15 15 25  23 24 42  46 57 85  192 188 185  192 188 185  180 179 175  187 184 179  174 170 167  
50 53 62  53 56 65  21 21 23  18 18 20  15 15 17  18 18 20  19 20 24  19 19 21  13 13 13  15 15 15  112 110 121  53 56 65  6 9 16  11 11 19  9 10 15  10 11 16  14 15 20  33 35 50  26 42 76  19 23 35  24 26 41  18 18 28  10 11 15  17 20 37  8 9 14  20 21 39  40 45 67  14 15 20  8 9 13  16 16 24  37 41 70  185 181 178  172 168 165  186 182 179  178 174 171  196 192 189  
42 45 54  35 36 41  21 20 25  15 16 18  15 15 17  18 18 20  18 19 23  19 20 22  12 13 15  13 15 14  50 48 59  109 110 130  22 22 24  5 8 13  7 8 12  12 13 18  10 11 15  12 16 19  36 38 51  10 11 16  11 14 23  9 10 12  19 21 34  30 35 57  35 39 66  17 19 32  18 21 40  16 18 30  15 18 27  16 18 30  24 27 44  193 189 186  178 177 173  168 167 165  179 178 176  183 178 175  
42 46 55  20 21 25  18 19 23  16 16 16  14 14 16  17 17 19  18 19 21  19 18 23  14 14 14  14 14 16  6 6 8  1 4 11  94 93 109  7 10 15  9 10 14  9 10 14  10 11 16  9 10 14  11 12 17  16 16 26  16 18 31  6 7 9  25 26 44  36 38 61  37 42 72  13 13 21  26 28 41  27 30 45  21 24 41  22 26 38  23 34 56  188 184 181  181 180 178  182 181 177  176 175 171  179 174 171  
42 45 52  18 19 21  18 19 21  14 14 14  15 15 17  17 17 19  18 19 23  19 20 22  14 15 17  13 13 15  13 13 15  137 142 163  97 95 118  8 11 16  9 10 14  14 15 20  14 14 22  11 12 17  11 12 17  12 13 18  15 16 21  10 11 15  12 13 18  26 27 49  24 30 46  9 10 14  17 17 25  23 28 49  23 28 47  34 38 63  44 61 78  183 182 180  188 187 183  196 195 190  185 182 177  188 183 179  
31 32 36  20 19 24  17 17 19  13 13 13  16 16 18  17 17 19  18 19 23  20 20 22  15 15 15  14 14 16  14 14 14  22 21 26  84 80 104  7 10 15  9 10 14  13 14 19  10 11 15  11 14 21  13 13 21  12 12 20  12 12 20  14 14 22  13 14 19  12 13 18  20 20 32  15 15 25  16 18 30  23 28 47  34 40 64  40 47 76  213 226 232  189 185 182  200 199 194  192 189 184  183 178 172  193 188 184  
21 22 26  18 18 20  16 16 18  12 12 12  15 15 17  16 17 19  18 19 21  19 20 22  16 16 16  15 15 15  13 13 13  20 20 20  134 132 155  7 11 20  9 10 14  9 10 14  9 13 22  10 13 18  11 14 23  13 16 25  14 17 26  14 16 28  15 17 29  15 17 29  16 20 32  20 23 38  17 21 33  37 40 71  29 35 59  36 42 64  200 199 204  211 209 210  189 186 181  187 184 179  189 186 181  188 185 180  
19 20 24  17 17 19  15 15 17  11 11 11  15 15 17  17 18 20  17 18 20  19 20 22  16 16 16  16 16 16  14 14 14  17 17 17  121 118 145  10 15 21  10 11 15  12 13 17  7 11 12  10 14 25  18 21 38  14 16 28  14 16 29  16 18 31  18 20 33  17 21 33  16 20 32  24 29 48  37 41 66  29 34 56  28 33 55  37 45 68  142 132 122  206 206 208  196 193 188  184 180 177  193 189 186  190 187 182  
19 18 23  17 17 17  15 15 15  12 12 12  16 16 18  16 17 19  19 20 24  18 19 21  16 16 16  18 18 20  13 13 13  17 17 17  113 111 135  6 10 21  8 11 16  11 12 16  11 11 19  8 11 16  9 8 13  9 10 14  14 16 28  22 25 40  20 23 38  19 22 37  17 23 37  18 25 43  20 26 48  31 35 60  29 34 56  17 25 45  127 119 106  188 185 180  213 211 212  194 190 187  186 182 179  190 185 181  
19 19 21  15 15 17  14 14 14  13 13 13  16 16 18  18 18 20  18 19 23  18 19 21  16 16 16  16 16 16  13 13 13  16 16 16  110 107 134  10 14 23  9 12 17  10 11 15  13 13 21  12 12 20  11 11 19  11 12 17  8 9 14  20 22 37  21 22 42  21 23 36  16 16 24  16 18 30  28 30 45  29 31 54  27 29 52  32 38 62  138 132 120  141 134 124  197 196 194  194 190 187  185 182 175  188 183 179  
17 17 19  15 15 15  14 14 14  15 15 15  15 16 18  16 17 19  17 18 22  19 19 21  15 15 15  17 17 17  13 13 13  16 16 16  117 115 138  8 12 21  10 13 18  11 12 16  15 15 27  13 13 21  13 13 21  12 12 20  12 13 18  24 25 43  29 31 53  29 33 58  27 30 49  26 28 50  26 28 50  33 37 64  32 34 57  41 42 70  184 183 179  177 173 170  183 180 175  182 181 177  174 173 169  175 174 170  
17 17 17  15 15 15  13 13 13  14 16 15  16 17 19  16 17 19  17 18 22  18 19 21  15 15 15  19 19 21  14 14 14  14 13 18  88 86 97  9 13 22  9 12 19  12 12 20  15 15 25  14 14 24  14 14 24  12 12 22  11 12 17  23 24 42  28 30 52  29 33 62  31 33 56  24 27 46  26 28 50  28 32 57  37 39 64  49 49 77  196 191 185  194 190 187  178 174 171  191 187 184  184 180 177  175 171 168  
16 16 16  15 15 15  12 12 12  15 15 17  15 16 18  16 17 19  18 19 23  19 20 22  15 15 15  19 19 21  14 14 14  60 57 66  10 13 22  9 13 24  8 11 18  12 12 20  14 14 24  13 16 25  11 14 23  14 14 24  10 11 16  24 25 43  27 30 49  32 36 63  30 34 59  26 28 50  25 28 47  29 33 58  35 39 64  48 55 83  183 179 176  174 170 167  189 188 184  185 181 178  187 183 180  182 181 177  
14 14 14  14 14 14  13 13 13  15 16 18  16 17 19  16 17 19  19 20 24  18 19 21  15 15 15  18 19 21  14 14 14  92 90 95  11 15 27  10 14 25  9 12 21  10 10 18  15 15 25  14 15 20  15 15 25  15 15 25  11 12 17  21 23 38  25 27 49  31 33 56  33 37 64  25 28 45  27 30 47  29 31 53  38 43 65  36 40 67  193 192 188  176 172 169  182 181 177  180 177 172  186 183 178  195 191 188  
14 14 14  14 14 14  11 13 12  16 17 19  17 17 19  16 17 19  17 18 22  19 19 21  16 16 16  20 20 22  13 13 13  17 21 20  12 14 26  11 15 26  10 13 22  10 13 22  12 13 18  16 18 33  17 15 26  15 15 23  13 13 21  16 17 22  30 33 52  24 27 44  33 38 67  28 31 50  23 26 41  27 30 49  32 36 61  34 36 58  183 184 178  192 187 184  192 191 187  183 179 176  184 185 179  184 183 179  
14 14 14  14 14 14  13 15 14  16 17 19  16 16 18  16 17 19  18 19 23  19 19 21  18 18 18  20 20 22  16 16 16  36 39 46  10 17 27  11 15 27  11 13 25  11 14 23  10 14 26  15 14 20  14 17 24  16 16 26  14 14 22  10 11 16  32 34 56  25 28 45  34 40 64  28 31 50  22 25 40  23 26 45  37 41 66  35 37 60  168 163 160  172 169 164  178 174 171  173 172 168  168 163 159  169 168 164  
14 14 14  14 14 14  15 15 15  16 17 19  15 16 18  16 17 19  17 18 22  19 20 22  19 19 21  19 19 21  16 16 16  15 15 17  11 17 29  12 16 28  10 13 28  9 12 19  15 15 23  14 16 28  13 15 27  17 17 29  12 12 20  8 7 12  26 29 48  27 30 49  28 30 53  34 38 65  26 27 49  27 29 51  34 38 63  41 42 72  187 186 182  169 165 162  183 182 178  192 192 184  182 181 177  181 177 174  
14 14 14  15 15 15  17 17 19  18 19 21  16 17 19  17 17 19  17 18 20  18 19 21  17 18 20  17 18 20  16 18 17  16 16 16  11 17 31  11 17 29  12 16 28  11 13 25  16 18 30  20 22 37  17 18 23  18 20 33  18 20 33  12 13 18  24 26 41  28 30 52  29 31 54  29 34 63  22 25 42  25 28 45  25 27 49  40 45 66  182 181 177  166 171 165  190 185 182  171 167 164  179 178 174  173 172 168  
13 15 14  14 14 14  18 18 20  17 18 20  15 16 18  17 17 19  17 18 20  18 18 20  17 17 17  17 17 17  19 19 19  16 16 14  12 16 25  11 15 26  12 16 25  11 14 21  21 24 31  25 26 44  9 9 9  20 22 35  18 22 31  20 17 36  21 21 31  27 28 48  26 28 43  28 29 47  27 30 49  24 25 43  31 32 50  183 179 176  189 186 179  165 166 161  178 177 173  186 183 178  167 166 162  163 162 158  
14 14 14  13 15 14  18 19 21  16 17 19  17 17 19  15 16 18  16 17 19  18 19 21  17 17 17  19 19 21  17 17 17  16 16 14  7 9 8  10 10 10  13 11 12  12 13 8  21 32 52  25 24 40  9 9 7  19 18 14  81 61 36  19 17 22  27 30 47  33 37 64  36 40 67  23 26 43  33 37 62  30 31 53  27 30 47  41 45 72  175 174 170  171 171 169  184 183 179  176 177 172  153 150 145  163 162 158  
15 15 15  14 15 17  16 17 19  17 17 17  17 18 20  16 17 19  17 18 20  17 18 20  17 17 17  20 20 22  17 17 17  17 17 15  159 158 156  149 151 148  147 147 145  155 154 152  22 30 50  12 12 10  12 12 10  12 9 4  167 130 26  54 43 23  30 32 47  43 48 77  31 30 46  30 34 59  40 46 72  34 36 59  36 40 67  37 43 69  166 162 159  163 159 156  161 158 153  189 185 182  183 182 178  161 157 154  
15 15 15  15 16 18  17 18 20  17 18 20  15 16 18  16 17 19  17 18 20  17 18 20  19 19 19  21 21 23  17 17 17  17 17 15  140 138 139  145 145 145  157 155 156  136 134 137  21 34 50  17 21 32  12 12 10  10 12 9  169 134 30  71 52 20  63 52 46  30 32 47  29 32 47  39 43 70  41 45 74  35 41 57  43 47 76  35 41 67  170 165 161  179 176 171  195 191 188  168 167 163  162 161 157  171 170 166  
15 15 15  16 17 19  17 18 20  16 16 18  15 17 16  17 18 20  15 16 18  16 17 19  18 20 19  19 20 22  16 16 14  17 17 15  141 139 142  133 135 134  126 126 126  57 56 62  23 29 41  16 16 18  12 12 10  11 11 9  178 139 34  189 158 41  176 134 32  88 104 101  134 136 135  32 34 56  37 39 61  65 46 16  33 35 57  30 24 36  172 171 166  158 163 157  171 172 166  168 164 161  167 166 162  166 162 159  
